<svg height="512" viewBox="0 0 64 64" width="512" xmlns="http://www.w3.org/2000/svg"><path d="m55 6h-5a3 3 0 0 0 -3-3h-32a3 3 0 0 0 -3 3h-3a5.006 5.006 0 0 0 -5 5v34a5.006 5.006 0 0 0 5 5h14.867l-.75 6h-2.117a3 3 0 0 0 0 6h22a3 3 0 0 0 0-6h-2.117l-.75-6h14.867a5.006 5.006 0 0 0 5-5v-34a5.006 5.006 0 0 0 -5-5zm0 2a3 3 0 0 1 3 3v29h-8v-32zm-41 4h34v28h-34zm1-7h32a1 1 0 0 1 1 1v4h-34v-4a1 1 0 0 1 1-1zm-6 3h3v32h-6v-29a3 3 0 0 1 3-3zm35 51a1 1 0 0 1 -1 1h-22a1 1 0 0 1 0-2h22a1 1 0 0 1 1 1zm-5.133-3h-13.734l.75-6h12.234zm16.133-8h-46a3 3 0 0 1 -3-3v-3h52v3a3 3 0 0 1 -3 3z"/><path d="m52 44h2v2h-2z"/><path d="m16 6h2v2h-2z"/><path d="m20 6h2v2h-2z"/><path d="m24 6h2v2h-2z"/><path d="m39.192 20.979a3.072 3.072 0 0 0 -4.242 0l-4.95 4.95-.707-.708a3.073 3.073 0 0 0 -4.242 0 3 3 0 0 0 0 4.242l2.828 2.829a3 3 0 0 0 4.242 0l7.071-7.071a3 3 0 0 0 0-4.243zm-1.414 2.829-7.071 7.07a1 1 0 0 1 -1.414 0l-2.828-2.828a1 1 0 0 1 0-1.414 1.023 1.023 0 0 1 1.414 0l1.414 1.414a1 1 0 0 0 1.414 0l5.658-5.657a1.023 1.023 0 0 1 1.413 0 1 1 0 0 1 0 1.414z"/><path d="m32 14a12 12 0 1 0 12 12 12.013 12.013 0 0 0 -12-12zm0 22a10 10 0 1 1 10-10 10.011 10.011 0 0 1 -10 10z"/></svg>