<svg id="Outline" height="512" viewBox="0 0 64 64" width="512" xmlns="http://www.w3.org/2000/svg"><path d="m31 55h2v2h-2z"/><path d="m55 21h-9v-5a3 3 0 0 0 -3-3h-14.078a7.015 7.015 0 0 0 .078-1v-1a7.009 7.009 0 0 0 -7-7h-13a7.009 7.009 0 0 0 -7 7v1a7.009 7.009 0 0 0 7 7h6.667l2.333 1.75v8.25h-9a7.009 7.009 0 0 0 -7 7v1a7.009 7.009 0 0 0 7 7h6.667l2.333 1.75v11.25a3 3 0 0 0 3 3h22a3 3 0 0 0 3-3v-19.8l1.376-1.2h7.624a7.009 7.009 0 0 0 7-7v-1a7.009 7.009 0 0 0 -7-7zm-21 7v1a6.981 6.981 0 0 0 .153 1.433l-5.173 5.173a7 7 0 0 0 -6.98-6.606h-.586l5.293-5.293 4.707-4.707h12.586v1.586l-.414.414h-2.586a7.009 7.009 0 0 0 -7 7zm-10.951-3.463-3.049 3.049v-5.336zm1.638-1.637-1.3-3.9h5.2l-3.293 3.293zm6.313-7.9v1h2v-1h10a1 1 0 0 1 1 1v1h-17.111a7.062 7.062 0 0 0 1.434-2zm-15 2h-7a5.006 5.006 0 0 1 -5-5v-1a5.006 5.006 0 0 1 5-5h13a5.006 5.006 0 0 1 5 5v1a5.006 5.006 0 0 1 -5 5 1 1 0 0 0 -.948 1.316l.987 2.963-5.439-4.079a1 1 0 0 0 -.6-.2zm0 25h-7a5.006 5.006 0 0 1 -5-5v-1a5.006 5.006 0 0 1 5-5h13a5.006 5.006 0 0 1 5 5v1a5.006 5.006 0 0 1 -5 5 1 1 0 0 0 -.948 1.316l.987 2.963-5.439-4.079a1 1 0 0 0 -.6-.2zm7.4 7.8a1 1 0 0 0 1.548-1.116l-1.6-4.814a7.014 7.014 0 0 0 5.462-5.263l6.124-6.124a7.025 7.025 0 0 0 4.777 3.4l-.8 2.8-13.325 13.317h-5.586v-4.75zm19.6 8.2h-22a1 1 0 0 1 -1-1v-3h24v3a1 1 0 0 1 -1 1zm-2.586-6 3.586-3.586v3.586zm3.586-6.414-6.414 6.414h-9.172l9.65-9.65a1 1 0 0 0 1.594.4l4.342-3.796zm16-16.586a5.006 5.006 0 0 1 -5 5h-8a1 1 0 0 0 -.658.247l-5.449 4.768 1.069-3.741a1 1 0 0 0 -.962-1.274 5.006 5.006 0 0 1 -5-5v-1a5.006 5.006 0 0 1 5-5h14a5.006 5.006 0 0 1 5 5z"/><path d="m7 8h16v2h-16z"/><path d="m7 12h9v2h-9z"/><path d="m7 33h16v2h-16z"/><path d="m7 37h10v2h-10z"/><path d="m39 26h18v2h-18z"/><path d="m39 30h4v2h-4z"/></svg>