<svg xmlns="http://www.w3.org/2000/svg" xmlns:xlink="http://www.w3.org/1999/xlink" version="1.1" id="Layer_1_1_" x="0px" y="0px" viewBox="0 0 64 64" style="enable-background:new 0 0 64 64;" xml:space="preserve" width="512" height="512"><g><rect x="28" y="5" width="8" height="2"/><rect x="38" y="5" width="2" height="2"/><rect x="24" y="5" width="2" height="2"/><rect x="29" y="57" width="6" height="2"/><path d="M60,40h-8v2h5v2H40.858C40.942,43.678,41,43.347,41,43s-0.058-0.678-0.142-1H50V6c0-2.757-2.243-5-5-5H19   c-2.757,0-5,2.243-5,5v17H5c-2.206,0-4,1.794-4,4s1.794,4,4,4h7v-2H9v-4h12v4h-7v29c0,2.757,2.243,5,5,5h26c2.757,0,5-2.243,5-5V46   h10c1.654,0,3-1.346,3-3S61.654,40,60,40z M20,31h2.162l4.861-1.62c0.112,1.42,0.833,2.737,1.977,3.599v0.267l-3.39,0.968   C23.484,34.822,22,36.79,22,39v3h9.667l-1.334,1l4.269,3.201C35.29,46.716,36.142,47,37,47c1.006,0,1.915-0.385,2.618-1H44v3H20V31   z M44,40h-2v-1c0-2.21-1.484-4.178-3.61-4.786L35,33.246v-0.267c1.246-0.939,2-2.416,2-3.979v-1.792   c0-2.688-2.001-4.966-4.555-5.188c-1.402-0.125-2.794,0.35-3.823,1.294c-0.463,0.424-0.821,0.936-1.093,1.489   c-0.054-0.022-0.105-0.05-0.161-0.068L22.162,23H20v-8h24V40z M39.618,40c-0.703-0.615-1.612-1-2.618-1   c-0.858,0-1.71,0.284-2.399,0.8L34.334,40H24v-1c0-1.322,0.888-2.499,2.159-2.862L31,34.754V31.87l-0.497-0.289   C29.562,31.033,29,30.068,29,29v-2c0-0.838,0.354-1.645,0.974-2.212c0.626-0.574,1.446-0.849,2.298-0.776   C33.802,24.145,35,25.548,35,27.208V29c0,1.068-0.562,2.033-1.503,2.581L33,31.87v2.884l4.841,1.384C39.112,36.501,40,37.678,40,39   v1H39.618z M35.799,41.4C36.145,41.143,36.57,41,37,41c1.103,0,2,0.897,2,2s-0.897,2-2,2c-0.43,0-0.855-0.143-1.2-0.399L33.667,43   L35.799,41.4z M26.735,26.632C26.894,26.685,27,26.833,27,27s-0.106,0.315-0.265,0.368L23,28.613v-3.225L26.735,26.632z M19,3h26   c1.654,0,3,1.346,3,3v3H16V6C16,4.346,17.346,3,19,3z M16,11h32v29h-2V13H18v10h-2V11z M7,29H5c-1.103,0-2-0.897-2-2s0.897-2,2-2h2   V29z M45,61H19c-1.654,0-3-1.346-3-3v-3h32v3C48,59.654,46.654,61,45,61z M48,53H16V31h2v20h28v-5h2V53z M60,44h-1v-2h1   c0.552,0,1,0.448,1,1S60.552,44,60,44z"/></g></svg>
